<?xml version="1.0" encoding="UTF-8"?>
<!DOCTYPE svg PUBLIC "-//W3C//DTD SVG 1.1//EN" "http://www.w3.org/Graphics/SVG/1.1/DTD/svg11.dtd">
<svg xmlns="http://www.w3.org/2000/svg" version="1.1" width="2048px" height="2048px" style="shape-rendering:geometricPrecision; text-rendering:geometricPrecision; image-rendering:optimizeQuality; fill-rule:evenodd; clip-rule:evenodd" xmlns:xlink="http://www.w3.org/1999/xlink">
<g><path style="opacity:0.989" fill="#00cccc" d="M 961.5,318.5 C 1009.85,318.113 1058.18,318.613 1106.5,320C 1168.23,324.85 1227.23,340.183 1283.5,366C 1352.81,398.629 1417.48,438.296 1477.5,485C 1478.5,485.667 1479.5,485.667 1480.5,485C 1525.29,450.588 1569.63,451.254 1613.5,487C 1652.72,529.426 1663.22,578.259 1645,633.5C 1637.28,649.891 1625.44,662.391 1609.5,671C 1626.1,716.231 1637.93,762.731 1645,810.5C 1646.65,825.665 1648.15,840.832 1649.5,856C 1647.25,875.746 1636.25,886.579 1616.5,888.5C 1605.48,889.08 1595.48,886.247 1586.5,880C 1580.59,874.761 1575.42,868.928 1571,862.5C 1524.34,774.84 1456.84,708.34 1368.5,663C 1301.34,632.73 1231.68,624.73 1159.5,639C 1150.71,641.262 1142.05,643.929 1133.5,647C 1101.63,660.271 1070.29,674.604 1039.5,690C 1034.35,692.121 1029.02,693.621 1023.5,694.5C 1017.98,693.621 1012.65,692.121 1007.5,690C 971.311,671.155 933.978,654.822 895.5,641C 808.823,621.907 726.823,634.24 649.5,678C 574.783,723.715 516.949,785.215 476,862.5C 469.349,872.819 460.516,880.652 449.5,886C 434.709,890.945 421.042,888.945 408.5,880C 401.953,873.377 398.287,865.377 397.5,856C 401.627,801.698 411.794,748.531 428,696.5C 430.582,687.751 433.748,679.251 437.5,671C 421.558,662.391 409.724,649.891 402,633.5C 384.755,582.074 393.089,535.407 427,493.5C 454.764,464.58 488.264,454.413 527.5,463C 542,468.83 555.5,476.33 568,485.5C 633.053,434.899 703.553,392.732 779.5,359C 837.844,334.41 898.511,320.91 961.5,318.5 Z M 502.5,531.5 C 507.183,531.507 511.183,533.174 514.5,536.5C 500.926,554.645 488.093,573.312 476,592.5C 470.792,588.416 468.626,583.083 469.5,576.5C 469.828,563.68 473.828,552.18 481.5,542C 484.833,539.667 488.167,537.333 491.5,535C 495.254,533.691 498.921,532.525 502.5,531.5 Z M 1539.5,531.5 C 1558.09,532.924 1569.92,542.59 1575,560.5C 1577.32,568.354 1577.99,576.354 1577,584.5C 1575.49,587.524 1573.49,590.191 1571,592.5C 1558.91,573.312 1546.07,554.645 1532.5,536.5C 1534.72,534.566 1537.06,532.899 1539.5,531.5 Z"/></g>
<g><path style="opacity:1" fill="#00cccc" d="M 686.5,693.5 C 735.467,689.685 768.3,710.685 785,756.5C 795.218,807.973 776.385,843.806 728.5,864C 683.571,873.499 649.738,858.665 627,819.5C 614.35,791.751 614.35,764.084 627,736.5C 640.582,713.404 660.416,699.071 686.5,693.5 Z"/></g>
<g><path style="opacity:1" fill="#00cccc" d="M 1330.5,693.5 C 1371.49,689.402 1401.99,705.069 1422,740.5C 1438.44,784.817 1428.61,821.984 1392.5,852C 1369.77,866.758 1345.1,870.758 1318.5,864C 1274.29,846.116 1254.79,813.282 1260,765.5C 1266.42,736.411 1282.59,714.911 1308.5,701C 1315.71,697.765 1323.04,695.265 1330.5,693.5 Z"/></g>
<g><path style="opacity:0.968" fill="#00cccc" d="M 333.5,745.5 C 338.913,745.229 344.246,745.729 349.5,747C 357.414,750.871 364.914,755.371 372,760.5C 374,763.833 376,767.167 378,770.5C 381.459,794.753 384.459,819.087 387,843.5C 389.539,859.193 392.205,874.86 395,890.5C 395.192,898.744 396.025,906.911 397.5,915C 397.095,924.806 393.428,933.14 386.5,940C 367.535,949.63 350.201,961.63 334.5,976C 292.739,1012.66 262.239,1057.16 243,1109.5C 238.136,1123.09 233.469,1136.76 229,1150.5C 225.497,1166.02 222.831,1181.69 221,1197.5C 219.159,1210.36 213.326,1220.86 203.5,1229C 185.991,1239.17 170.158,1237 156,1222.5C 146.717,1209.4 141.717,1194.73 141,1178.5C 137.492,1138.25 135.992,1097.92 136.5,1057.5C 131.566,986.576 147.066,920.576 183,859.5C 193.305,844.184 205.472,830.351 219.5,818C 236.399,801.897 254.399,787.23 273.5,774C 292.418,762.039 312.418,752.539 333.5,745.5 Z M 320.5,821.5 C 323.625,846.205 327.459,870.872 332,895.5C 289.333,924.833 253.333,960.833 224,1003.5C 216.162,1015.84 208.828,1028.51 202,1041.5C 200.542,1019.65 201.875,997.981 206,976.5C 211.679,953.464 219.345,931.13 229,909.5C 238.501,891.714 251.001,876.214 266.5,863C 283.26,847.388 301.26,833.555 320.5,821.5 Z"/></g>
<g><path style="opacity:0.968" fill="#00cccc" d="M 1701.5,745.5 C 1708.01,745.07 1714.34,745.903 1720.5,748C 1756.23,761.353 1787.9,781.02 1815.5,807C 1831.74,821.235 1846.57,836.735 1860,853.5C 1886.22,895.486 1902.55,941.153 1909,990.5C 1910.89,1040.83 1910.89,1091.16 1909,1141.5C 1908.55,1162.79 1905.88,1183.79 1901,1204.5C 1893.41,1227.13 1877.91,1236.96 1854.5,1234C 1842.52,1230.69 1834.36,1223.19 1830,1211.5C 1828.36,1206.92 1827.02,1202.26 1826,1197.5C 1817.49,1133.29 1794.49,1074.96 1757,1022.5C 1735.78,997.614 1712.28,975.114 1686.5,955C 1678.13,949.481 1669.46,944.481 1660.5,940C 1653.57,933.14 1649.9,924.806 1649.5,915C 1650.97,906.911 1651.81,898.744 1652,890.5C 1659.22,851.767 1664.55,812.767 1668,773.5C 1670,768.167 1672.84,763.334 1676.5,759C 1684.54,753.754 1692.87,749.254 1701.5,745.5 Z M 1725.5,821.5 C 1732.97,825.738 1740.31,830.238 1747.5,835C 1766.23,850.058 1784.06,866.225 1801,883.5C 1811.99,897.814 1820.66,913.48 1827,930.5C 1836.62,954.652 1842.62,979.652 1845,1005.5C 1845.67,1017.5 1845.67,1029.5 1845,1041.5C 1823.18,998.404 1794.01,960.904 1757.5,929C 1744.2,916.69 1730.03,905.523 1715,895.5C 1719.84,871.091 1723.34,846.424 1725.5,821.5 Z"/></g>
<g><path style="opacity:0.971" fill="#00cccc" d="M 976.5,845.5 C 1015.78,845.667 1054.78,846.167 1093.5,847C 1108.32,849.807 1119.15,857.973 1126,871.5C 1149.92,916.658 1141.08,953.824 1099.5,983C 1088.16,990.058 1075.83,993.558 1062.5,993.5C 1066.65,1016.68 1069.81,1040.02 1072,1063.5C 1077.75,1076.91 1087.58,1085.75 1101.5,1090C 1116.69,1093.15 1132.03,1095.31 1147.5,1096.5C 1162.1,1094.01 1176.76,1092.51 1191.5,1092C 1212.62,1096.74 1222.12,1109.91 1220,1131.5C 1214.31,1150.69 1201.47,1159.35 1181.5,1157.5C 1144.55,1163.23 1108.22,1160.4 1072.5,1149C 1062.55,1144.69 1053.21,1139.36 1044.5,1133C 1036.57,1125.91 1029.57,1118.08 1023.5,1109.5C 1005,1135.93 979.662,1151.43 947.5,1156C 920.218,1161.88 892.885,1162.38 865.5,1157.5C 847.441,1159.56 834.941,1152.22 828,1135.5C 823.479,1109.21 834.479,1094.55 861,1091.5C 873.839,1093.11 886.673,1094.78 899.5,1096.5C 917.13,1095.39 934.464,1092.55 951.5,1088C 962.391,1082.78 970.225,1074.61 975,1063.5C 977.185,1040.02 980.352,1016.68 984.5,993.5C 952.984,990.823 929.817,975.49 915,947.5C 905.313,926.918 905.313,906.252 915,885.5C 924.632,855.355 945.132,842.022 976.5,845.5 Z"/></g>
<g><path style="opacity:0.917" fill="#00cccc" d="M 825.5,889.5 C 852.807,888.972 865.64,902.306 864,929.5C 861.102,939.064 855.269,946.23 846.5,951C 836.036,953.533 825.703,956.533 815.5,960C 801.051,966.559 786.384,972.559 771.5,978C 745.647,978.813 733.147,966.313 734,940.5C 735.679,932.153 739.846,925.32 746.5,920C 771.748,906.755 798.081,896.589 825.5,889.5 Z"/></g>
<g><path style="opacity:0.917" fill="#00cccc" d="M 1207.5,889.5 C 1217.03,889.04 1226.37,890.207 1235.5,893C 1257.85,900.447 1279.52,909.447 1300.5,920C 1315.98,934.87 1317.48,951.036 1305,968.5C 1296.67,976.275 1286.84,979.442 1275.5,978C 1260.62,972.559 1245.95,966.559 1231.5,960C 1221.3,956.533 1210.96,953.533 1200.5,951C 1180.95,938.195 1177.12,921.695 1189,901.5C 1194.04,895.606 1200.2,891.606 1207.5,889.5 Z"/></g>
<g><path style="opacity:0.985" fill="#00cccc" d="M 440.5,947.5 C 460.415,945.863 473.249,954.53 479,973.5C 518.911,1026.08 565.411,1071.91 618.5,1111C 650.5,1133.34 683.833,1153.68 718.5,1172C 765.55,1191.79 813.883,1207.79 863.5,1220C 884.985,1224.31 906.651,1227.31 928.5,1229C 1001.6,1235.39 1074.6,1234.39 1147.5,1226C 1177.42,1221.88 1206.75,1215.22 1235.5,1206C 1267.04,1196.04 1298.04,1184.71 1328.5,1172C 1419.96,1125.9 1497.79,1062.73 1562,982.5C 1566.63,974.721 1570.96,966.721 1575,958.5C 1588.1,946.105 1602.6,944.272 1618.5,953C 1624.33,958.833 1630.17,964.667 1636,970.5C 1664.11,1004.06 1689.78,1039.4 1713,1076.5C 1744.59,1130.27 1763.59,1188.27 1770,1250.5C 1774.83,1289.2 1774.49,1327.87 1769,1366.5C 1766.61,1385.54 1763.95,1404.54 1761,1423.5C 1753.13,1468.13 1736.13,1508.8 1710,1545.5C 1693.97,1565.54 1676.47,1584.37 1657.5,1602C 1638.13,1619.71 1618.46,1637.04 1598.5,1654C 1515.48,1716.56 1421.64,1748.06 1317,1748.5C 1277.96,1748.88 1239.79,1743.38 1202.5,1732C 1180.49,1723.82 1172.33,1708.32 1178,1685.5C 1183.83,1674.33 1192.33,1665.83 1203.5,1660C 1227.11,1648.86 1250.45,1637.19 1273.5,1625C 1285.01,1618.75 1296.01,1611.75 1306.5,1604C 1321.56,1589.28 1334.73,1573.12 1346,1555.5C 1354,1539.67 1360.17,1523.17 1364.5,1506C 1328.61,1498.7 1294.28,1503.7 1261.5,1521C 1248.21,1531.29 1235.21,1541.96 1222.5,1553C 1217.5,1556.83 1212.17,1560.17 1206.5,1563C 1180.86,1570.58 1164.03,1561.75 1156,1536.5C 1153.66,1487.03 1171.16,1446.2 1208.5,1414C 1225.47,1400.51 1243.47,1388.51 1262.5,1378C 1279.27,1370.45 1295.6,1362.12 1311.5,1353C 1336.79,1341.68 1362.79,1332.35 1389.5,1325C 1404.78,1322.41 1420.12,1320.25 1435.5,1318.5C 1434.06,1301.75 1430.56,1285.42 1425,1269.5C 1418.85,1249.05 1411.52,1229.05 1403,1209.5C 1402.63,1208.09 1401.8,1207.09 1400.5,1206.5C 1377.95,1220.44 1354.28,1232.28 1329.5,1242C 1288.68,1257.94 1247.01,1271.27 1204.5,1282C 1180.75,1287.25 1156.75,1290.92 1132.5,1293C 1045.97,1301.34 959.637,1299.68 873.5,1288C 845.705,1283.22 818.371,1276.55 791.5,1268C 759.117,1257.32 727.117,1245.65 695.5,1233C 678.528,1225.18 662.195,1216.35 646.5,1206.5C 641.837,1215.16 637.671,1224.16 634,1233.5C 625.791,1256.13 618.791,1279.13 613,1302.5C 612.023,1307.79 611.523,1313.13 611.5,1318.5C 635.672,1320.42 659.339,1324.92 682.5,1332C 727.12,1347.81 769.454,1368.15 809.5,1393C 834.962,1408.46 855.795,1428.63 872,1453.5C 887.002,1479.17 893.335,1506.84 891,1536.5C 882.97,1561.75 866.137,1570.58 840.5,1563C 825.401,1554.24 811.735,1543.58 799.5,1531C 779.942,1516.36 757.942,1507.36 733.5,1504C 717.167,1503.33 700.833,1503.33 684.5,1504C 683.572,1504.39 682.905,1505.05 682.5,1506C 688.802,1532.77 700.302,1556.93 717,1578.5C 724.833,1587 732.667,1595.5 740.5,1604C 750.992,1611.75 761.992,1618.75 773.5,1625C 796.555,1637.19 819.888,1648.86 843.5,1660C 854.667,1665.83 863.167,1674.33 869,1685.5C 874.672,1708.32 866.506,1723.82 844.5,1732C 807.208,1743.38 769.041,1748.88 730,1748.5C 610.856,1747.92 507.356,1708.09 419.5,1629C 386.893,1601.39 357.393,1570.89 331,1537.5C 310.444,1505.85 296.111,1471.52 288,1434.5C 281.744,1398.37 277.077,1362.04 274,1325.5C 272.523,1269.36 279.856,1214.36 296,1160.5C 312.823,1111.43 336.823,1066.43 368,1025.5C 386.142,999.762 406.309,975.596 428.5,953C 432.481,950.838 436.481,949.005 440.5,947.5 Z M 348.5,1222.5 C 355.348,1180.12 370.182,1140.78 393,1104.5C 408.685,1080.46 425.352,1057.13 443,1034.5C 474.167,1071 508,1104.83 544.5,1136C 559.549,1148.05 574.883,1159.72 590.5,1171C 585.322,1180.86 580.822,1191.02 577,1201.5C 576.439,1202.02 575.772,1202.36 575,1202.5C 543.041,1189.21 509.875,1185.04 475.5,1190C 445.771,1192.25 416.438,1196.91 387.5,1204C 373.932,1209.12 360.932,1215.29 348.5,1222.5 Z M 1698.5,1222.5 C 1686.07,1215.29 1673.07,1209.12 1659.5,1204C 1612.15,1192.29 1564.15,1187.63 1515.5,1190C 1500.42,1192.14 1485.92,1196.31 1472,1202.5C 1471.23,1202.36 1470.56,1202.02 1470,1201.5C 1466.18,1191.02 1461.68,1180.86 1456.5,1171C 1499.26,1140.6 1538.76,1106.1 1575,1067.5C 1584.67,1056.5 1594.33,1045.5 1604,1034.5C 1628.07,1064.26 1649.41,1095.92 1668,1129.5C 1683.28,1158.83 1693.44,1189.83 1698.5,1222.5 Z"/></g>
<g><path style="opacity:0.914" fill="#00cccc" d="M 870.5,965.5 C 893.365,964.534 906.365,975.368 909.5,998C 908.119,1011.38 901.786,1021.71 890.5,1029C 868.836,1043.17 846.836,1056.83 824.5,1070C 808.57,1076.14 795.07,1072.64 784,1059.5C 773.545,1039.49 777.711,1023.32 796.5,1011C 818.242,999.243 838.909,985.91 858.5,971C 862.475,968.854 866.475,967.02 870.5,965.5 Z"/></g>
<g><path style="opacity:0.914" fill="#00cccc" d="M 1163.5,965.5 C 1172.5,964.335 1180.83,966.168 1188.5,971C 1208.09,985.91 1228.76,999.243 1250.5,1011C 1269.29,1023.32 1273.46,1039.49 1263,1059.5C 1251.93,1072.64 1238.43,1076.14 1222.5,1070C 1200.16,1056.83 1178.16,1043.17 1156.5,1029C 1145.21,1021.71 1138.88,1011.38 1137.5,998C 1139.01,981.334 1147.68,970.501 1163.5,965.5 Z"/></g>
</svg>
